<svg xmlns="http://www.w3.org/2000/svg" aria-label="Meeq Corporation" role="img" viewBox="0 0 1040 470" width="100%" fill="currentColor" fill-rule="evenodd">
  <path d="M954.6 360.3h14.7V447h-16l-49-63.2V447h-14.7v-86.7h14.7l50.3 64.8Zm-106.1 20.5a28.9 28.9 0 0 0-21.7-9.2 30.9 30.9 0 0 0-30.6 31.4 30.9 30.9 0 0 0 30.6 31.5 30.9 30.9 0 0 0 30.6-31.4c0-8.8-3-16.2-9-22.3Zm10.8 54.3a44.8 44.8 0 0 1-32.5 12.8A44.7 44.7 0 0 1 781 403a44.7 44.7 0 0 1 45.6-44.8 44.7 44.7 0 0 1 45.7 44.8 43 43 0 0 1-13.1 32.1Zm-110-74.8h14.6V447h-14.6Zm-177.5 28.2c0 14.3-6.2 23.3-18.7 27l22.7 31.5h-18.6l-20.7-29.1h-19.2V447h-14.7v-86.7H535c13.2 0 22.7 2.3 28.4 6.7 5.7 4.5 8.5 11.6 8.5 21.5Zm-36.3 16c8.3 0 13.9-1.2 16.9-3.8 3-2.5 4.4-6.6 4.4-12.3 0-5.7-1.5-9.5-4.6-11.6-3-2.2-8.5-3.2-16.3-3.2h-18.6v31h18.2Zm-74-23.7a28.9 28.9 0 0 0-21.7-9.2 30.9 30.9 0 0 0-30.6 31.4 30.9 30.9 0 0 0 30.6 31.5 30.9 30.9 0 0 0 30.6-31.4c0-8.8-3-16.2-9-22.3Zm10.8 54.3a44.8 44.8 0 0 1-32.5 12.8A44.7 44.7 0 0 1 394 403a44.7 44.7 0 0 1 45.6-44.8 44.7 44.7 0 0 1 45.7 44.8 43 43 0 0 1-13.1 32.1Zm-126.4-74.8c13.1 0 22.7 2.5 28.8 7.6 6 5 9 12.8 9 23.3s-3 18.2-9.2 23c-6.2 5-15.6 7.4-28.3 7.4h-15.4V447H316v-86.7h30Zm1.9 48c8 0 13.6-1.5 16.5-4.6 3-3.1 4.4-7.7 4.4-13.7 0-6-1.8-10.2-5.6-12.7a32.2 32.2 0 0 0-17.4-3.7h-15v34.7h17Zm-51.5-19.8c0 14.3-6.2 23.3-18.7 27l22.7 31.5h-18.6L261 417.9h-19.3V447h-14.6v-86.7h32.3c13.2 0 22.6 2.3 28.3 6.7 5.8 4.5 8.6 11.6 8.6 21.5Zm-36.3 16c8.2 0 13.9-1.2 16.8-3.8 3-2.5 4.5-6.6 4.5-12.3 0-5.7-1.5-9.5-4.6-11.6-3-2.2-8.5-3.2-16.4-3.2h-18.6v31H260Zm-74-23.7a28.9 28.9 0 0 0-21.8-9.2 30.9 30.9 0 0 0-30.6 31.4 30.9 30.9 0 0 0 30.6 31.5 30.9 30.9 0 0 0 30.6-31.4c0-8.8-2.9-16.2-8.9-22.3Zm10.7 54.3a44.8 44.8 0 0 1-32.5 12.8 44.7 44.7 0 0 1-45.6-44.9 44.7 44.7 0 0 1 45.6-44.8A44.7 44.7 0 0 1 210 403a43 43 0 0 1-13.2 32.1Zm-121.1-1.4c5 0 9.4-.8 13-2.5 3.6-1.7 7.4-4.4 11.4-8.1l9.4 9.6A43.4 43.4 0 0 1 76 448c-13 0-24-4.2-32.6-12.7a42.8 42.8 0 0 1-13-32 43 43 0 0 1 13.3-32.2A45.7 45.7 0 0 1 77 358.2c13.4 0 24.7 5 33.7 14.9l-9.3 10.2c-4.2-4-8-6.8-11.7-8.3-3.7-1.6-8-2.4-13-2.4-8.8 0-16.1 2.8-22 8.5-6 5.7-9 12.9-9 21.7a30 30 0 0 0 8.9 22c5.9 6 12.9 9 21 9ZM595.3 447l8.6-19.7h43.4L656 447h15.7l-38.2-86.7h-15.7L579.6 447h15.7Zm113 0v-73.3h26.3v-13.4h-67.2v13.4h26.3V447h14.7Zm-82.7-69 15.8 35.8h-31.5l15.7-35.7ZM30 315h808v-10H30Z"/>
  <path d="m920.4 319 25.6-21.4-11.7-14-48.9 41-11.7-14 48.9-41-12.7-15a132.1 132.1 0 1 1 28.2-23.1l12.4 14.7 48.8-41 11.7 14-48.8 41 11.7 14 25.6-21.5 11.7 14-25.6 21.4 17.6 21-28 23.4-17.5-21-25.6 21.5-11.7-14ZM772.8 213c31 30 78 36 115.3 15.6l-55.3-66-60 50.5Zm-12-13.7A98.7 98.7 0 0 1 911.6 72.8L849 125.3l-28 23.4-60.2 50.6Zm99.9-60 62.4-52.4a98.7 98.7 0 0 1-6.7 118.7l-55.7-66.3ZM685.6 30v34H544.2v61.3h130.3V159H544.2v62H690v34H507.6V30ZM477 30v34H335.5v61.3h130.3V159H335.5v62h145.8v34H298.9V30ZM64.4 255H30V30h53.8l61.7 141.3L207.1 30h53.5v225h-34.5V79.2l-71.3 156.2h-19.3l-71-156.2Z"/>
</svg>
